<svg xmlns="http://www.w3.org/2000/svg" width="600" height="352" viewBox="0 0 600 352" role="img" aria-label="Рис. 3. Мощь органа"><title>Рис. 3. Мощь органа</title><style>text{fill:#16201C;font-family:"Golos Text","Segoe UI",system-ui,Arial,sans-serif;font-size:13px}.t-h,.t-strong{font-weight:600}.t-sub{fill:#55635D;font-size:12px}.t-lab{fill:#55635D;font-family:"JetBrains Mono",Consolas,"Courier New",monospace;font-size:10.5px;letter-spacing:.07em}.t-mono{font-family:"JetBrains Mono",Consolas,"Courier New",monospace;font-size:11.5px}.t-edge{fill:#55635D;font-family:"JetBrains Mono",Consolas,"Courier New",monospace;font-size:10.5px}.t-tick{fill:#55635D;font-family:"JetBrains Mono",Consolas,"Courier New",monospace;font-size:11px}.t-seg{font-family:"JetBrains Mono",Consolas,"Courier New",monospace;font-size:11px}.t-pl{fill:#255F92} .t-npc{fill:#91540F}.b-body{fill:#E0E7E1;stroke:#16201C;stroke-width:1.1}.b-plain{fill:#F7F9F6;stroke:#C4CEC7;stroke-width:1}.b-pl{fill:#DCE7F1;stroke:#255F92;stroke-width:1.2}.b-npc{fill:#F2E5D3;stroke:#91540F;stroke-width:1.2}.b-note{fill:none;stroke:#55635D;stroke-width:1;stroke-dasharray:4 3}.e{fill:none;stroke:#55635D;stroke-width:1.4}.e-pl{stroke:#255F92} .e-npc{stroke:#91540F} .e-ink{stroke:#16201C}.ah{fill:#55635D} .ah-pl{fill:#255F92} .ah-npc{fill:#91540F} .ah-ink{fill:#16201C}.rule-pl{stroke:#255F92;stroke-width:2} .rule-npc{stroke:#91540F;stroke-width:2} .rule-ink{stroke:#16201C;stroke-width:2}.grid-l{stroke:#C4CEC7;stroke-width:1;fill:none}.axis{stroke:#55635D;stroke-width:1.2;fill:none}.series-pl{fill:none;stroke:#255F92;stroke-width:3;stroke-linejoin:round}.series-code{fill:none;stroke:#55635D;stroke-width:1.6;stroke-dasharray:6 5}.series-npc{stroke:#91540F;stroke-width:3}.series-npc2{stroke:#91540F;stroke-width:1.6;stroke-dasharray:3 3}.dot-pl{fill:#255F92;stroke:#F7F9F6;stroke-width:2}.seg0{fill:#D5DDD7} .seg1{fill:#B9C7BE} .seg2{fill:#8FA497} .seg3{fill:#16201C}</style><rect width="600" height="352" fill="#F7F9F6"/><defs><marker id="f3-m" viewBox="0 0 10 10" refX="9" refY="5" markerWidth="7" markerHeight="7" orient="auto-start-reverse"><path d="M0,0 L10,5 L0,10 z" class="ah"/></marker><marker id="f3-pl" viewBox="0 0 10 10" refX="9" refY="5" markerWidth="7" markerHeight="7" orient="auto-start-reverse"><path d="M0,0 L10,5 L0,10 z" class="ah-pl"/></marker><marker id="f3-npc" viewBox="0 0 10 10" refX="9" refY="5" markerWidth="7" markerHeight="7" orient="auto-start-reverse"><path d="M0,0 L10,5 L0,10 z" class="ah-npc"/></marker><marker id="f3-ink" viewBox="0 0 10 10" refX="9" refY="5" markerWidth="7" markerHeight="7" orient="auto-start-reverse"><path d="M0,0 L10,5 L0,10 z" class="ah-ink"/></marker></defs><line x1="64.0" y1="40" x2="64.0" y2="300" class="grid-l"/><text x="64.0" y="320.0" text-anchor="middle" class="t-tick">0</text><line x1="164.0" y1="40" x2="164.0" y2="300" class="grid-l"/><text x="164.0" y="320.0" text-anchor="middle" class="t-tick">20</text><line x1="264.0" y1="40" x2="264.0" y2="300" class="grid-l"/><text x="264.0" y="320.0" text-anchor="middle" class="t-tick">40</text><line x1="364.0" y1="40" x2="364.0" y2="300" class="grid-l"/><text x="364.0" y="320.0" text-anchor="middle" class="t-tick">60</text><line x1="464.0" y1="40" x2="464.0" y2="300" class="grid-l"/><text x="464.0" y="320.0" text-anchor="middle" class="t-tick">80</text><line x1="564.0" y1="40" x2="564.0" y2="300" class="grid-l"/><text x="564.0" y="320.0" text-anchor="middle" class="t-tick">100</text><line x1="64" y1="300.0" x2="564" y2="300.0" class="grid-l"/><text x="54.0" y="304.0" text-anchor="end" class="t-tick">0</text><line x1="64" y1="235.0" x2="564" y2="235.0" class="grid-l"/><text x="54.0" y="239.0" text-anchor="end" class="t-tick">0,5</text><line x1="64" y1="170.0" x2="564" y2="170.0" class="grid-l"/><text x="54.0" y="174.0" text-anchor="end" class="t-tick">1</text><line x1="64" y1="105.0" x2="564" y2="105.0" class="grid-l"/><text x="54.0" y="109.0" text-anchor="end" class="t-tick">1,5</text><line x1="64" y1="40.0" x2="564" y2="40.0" class="grid-l"/><text x="54.0" y="44.0" text-anchor="end" class="t-tick">2</text><line x1="64" y1="300" x2="564" y2="300" class="axis"/><text x="64.0" y="22.0" text-anchor="start" class="t-lab">мощь органа m</text><text x="314.0" y="344.0" text-anchor="middle" class="t-lab">родство к виду органа</text><polyline points="64.0,170.0 564.0,40.0" class="series-code"/><text x="294.0" y="89.4" text-anchor="end" class="t-sub">дефолт кода: с 0</text><polyline points="64.0,170.0 464.0,170.0 564.0,40.0" class="series-pl"/><circle cx="464.0" cy="170.0" r="4" class="dot-pl"/><circle cx="564.0" cy="40.0" r="4" class="dot-pl"/><text x="74.0" y="190.0" text-anchor="start" class="t-pl t-strong">игрок, сцена: ×1 до 80, затем до ×2</text><line x1="64" y1="235.0" x2="564" y2="235.0" class="series-npc"/><line x1="64" y1="241.5" x2="564" y2="241.5" class="series-npc2"/><text x="560.0" y="227.0" text-anchor="end" class="t-npc">лось, змея, ёж 0,5</text><text x="560.0" y="259.5" text-anchor="end" class="t-npc">волк 0,45</text></svg>
